PathFileType	4	(X/Y/Z)	D:\TRACE\spotREDO_2-26-24\spot_Both_Motion_3_6-platform.trc
DataRate	CameraRate	NumFrames	NumMarkers	Units	OrigDataRate	OrigDataStartFrame	OrigNumFrames
100.00	100.00	      24	5	mm	100.00	6126	      7000
Frame#	Time	Left_Front			Right_Front			Left_Aft			Right_Aft			Post			
		X1	Y1	Z1	X2	Y2	Z2	X3	Y3	Z3	X4	Y4	Z4	X5	Y5	Z5	

6126	61.250	-704.36157	20.01032	-569.12988	710.53052	25.54593	-484.50403	-775.52631	-20.25790	648.90863	793.60571	-13.71633	653.94397	-10.13638	662.20953	-950.99567	
6127	61.260	-704.45178	20.05575	-569.13672	710.49524	25.60777	-484.47809	-775.75671	-20.29189	648.94983	793.48230	-13.73089	653.92645	-10.39582	662.31683	-950.75372	
6128	61.270	-704.55829	20.10776	-569.12341	710.44324	25.62423	-484.41956	-775.86475	-20.31698	648.91901	793.36377	-13.81457	653.92596	-10.53953	662.41016	-950.55017	
6129	61.280	-704.63171	20.16040	-569.04071	710.45911	25.71525	-484.36279	-775.97644	-20.54637	648.85236	793.30798	-13.80047	653.94580	-10.65007	662.41034	-950.45245	
6130	61.290	-704.67029	20.18005	-569.06177	710.37201	25.66743	-484.35501	-776.01141	-20.59856	648.89136	793.30841	-13.78895	653.93866	-10.66892	662.42841	-950.38684	
6131	61.300	-704.71887	20.17357	-569.08081	710.27631	25.73169	-484.37076	-776.08905	-20.66106	648.91663	793.36029	-13.73777	653.92584	-10.71272	662.43683	-950.28876	
6132	61.310	-704.78943	20.21432	-569.06226	710.22302	25.76122	-484.39880	-776.20581	-20.70227	648.93512	793.37714	-13.72879	653.92719	-10.79276	662.50531	-950.25238	
6133	61.320	-704.68134	20.14167	-569.08569	710.10437	25.80389	-484.26266	-776.30188	-20.74688	648.91077	793.40881	-13.66708	653.98065	-10.89431	662.56189	-950.26898	
6134	61.330	-704.75677	20.17194	-569.05005	709.97534	25.80671	-484.34863	-776.42761	-20.77265	648.95050	793.35730	-13.68871	654.00342	-10.97748	662.70642	-950.27454	
6135	61.340	-704.96216	20.16862	-569.03131	709.78918	25.80692	-484.27380	-776.54065	-20.78804	648.93542	793.34357	-13.69197	654.06488	-11.02583	662.74023	-950.30444	
6136	61.350	-705.10382	20.17907	-569.02631	709.56116	25.82261	-484.31738	-776.62506	-20.75329	648.89600	793.38062	-13.64156	654.19232	-11.10707	662.79309	-950.34760	
6137	61.360	-705.20313	20.15442	-569.01880	709.48700	25.82648	-484.29443	-776.65619	-20.81575	648.91241	793.28198	-13.61393	654.23840	-11.19308	662.80725	-950.33917	
6138	61.370	-705.35663	20.20241	-569.05823	709.38361	25.85437	-484.26047	-776.70239	-20.86208	648.90210	793.05908	-13.77376	654.15900	-11.33755	662.79144	-950.37109	
6139	61.380	-705.45471	20.19005	-569.00464	709.18787	25.79840	-484.28677	-776.74225	-20.89911	648.89136	792.99573	-13.74158	654.16840	-11.44530	662.77698	-950.37701	
6140	61.390	-705.58313	20.19672	-569.08124	709.30231	25.59674	-484.22360	-776.82397	-20.87289	648.92987	792.90814	-13.66248	654.28949	-11.50042	662.76953	-950.32489	
6141	61.400	-705.70563	20.16069	-569.06677	708.99982	25.55506	-484.28372	-776.87567	-20.91541	648.91266	792.76129	-13.62644	654.16644	-11.53231	662.71948	-950.27808	
6142	61.410	-705.74542	20.07160	-569.10126	708.92566	25.56811	-484.28088	-776.91748	-20.89767	648.88757	792.63995	-13.63143	654.13904	-11.57974	662.66565	-950.24585	
6143	61.420	-705.81549	20.08863	-569.09912	708.82538	25.51593	-484.34433	-777.03320	-20.86914	648.81720	792.42450	-13.66820	654.10950	-11.67887	662.65186	-950.25281	
6144	61.430	-705.90399	20.00604	-569.16302	708.73999	25.45427	-484.37451	-777.13574	-20.85299	648.80554	792.37500	-13.60312	654.10431	-11.70123	662.61316	-950.25873	
6145	61.440	-705.96545	20.00452	-569.13739	708.60138	25.59818	-484.44601	-777.15973	-20.86850	648.81073	792.31433	-13.60401	654.09381	-11.85096	662.61218	-950.31372	
6146	61.450	-706.02856	19.97642	-569.12561	708.61707	25.39953	-484.32297	-777.19562	-20.88849	648.85223	792.31439	-13.58683	654.08856	-11.85627	662.56427	-950.37744	
6147	61.460	-706.06946	19.89968	-569.15253	708.77655	25.40603	-484.35107	-777.28802	-20.83621	648.87109	792.21588	-13.57406	654.08832	-12.00338	662.48657	-950.50043	
6148	61.470	-706.10706	19.85423	-569.14783	708.72339	25.33384	-484.34341	-777.36951	-20.78157	648.86737	792.09198	-13.53357	654.07495	-11.95556	662.44244	-950.49713	
6149	61.480	-706.13763	19.81176	-569.18451	708.48138	25.30210	-484.38800	-777.51318	-20.69121	648.85278	791.94360	-13.51788	654.05890	-11.92514	662.34857	-950.48828	
